<svg xmlns="http://www.w3.org/2000/svg" xmlns:xlink="http://www.w3.org/1999/xlink" viewBox="0 0 158.86 158.86"><defs><linearGradient id="a" y1="79.43" x2="158.86" y2="79.43" gradientUnits="userSpaceOnUse"><stop offset="0" stop-color="#f2f2f2"/><stop offset="1" stop-color="#f2f2f2"/></linearGradient><linearGradient id="b" x1="27.67" y1="98.45" x2="173.14" y2="98.45" gradientUnits="userSpaceOnUse"><stop offset="0" stop-color="#fafafa"/><stop offset="0.51" stop-color="#fff"/><stop offset="1" stop-color="#fafafa"/></linearGradient></defs><title>circle</title><circle cx="79.43" cy="79.43" r="78.93" fill="none" stroke-miterlimit="10" stroke="url(#a)"/><path d="M100.4,65.71A32.74,32.74,0,1,1,67.67,98.45,32.74,32.74,0,0,1,100.4,65.71m0-40a72.74,72.74,0,1,0,72.74,72.74A72.82,72.82,0,0,0,100.4,25.71h0Z" transform="translate(-20.97 -19.74)" fill="url(#b)"/><path d="M100.4,65.71A32.74,32.74,0,1,1,67.67,98.45,32.74,32.74,0,0,1,100.4,65.71m0-1a33.74,33.74,0,1,0,33.74,33.74A33.78,33.78,0,0,0,100.4,64.71h0Z" transform="translate(-20.97 -19.74)" fill="#f5f7f7"/><path d="M96.64,40a58.7,58.7,0,0,1,41.64,13.79" transform="translate(-20.97 -19.74)" fill="none" stroke="#f5f7f7" stroke-miterlimit="10"/><path d="M48.44,72.55A58.25,58.25,0,0,1,70.73,48a58.84,58.84,0,0,1,9.92-4.83" transform="translate(-20.97 -19.74)" fill="none" stroke="#f5f7f7" stroke-miterlimit="10"/><path d="M52.22,131.66q-0.94-1.36-1.81-2.79a58.3,58.3,0,0,1-7.63-40.63" transform="translate(-20.97 -19.74)" fill="none" stroke="#f5f7f7" stroke-miterlimit="10"/><path d="M104.17,156.86A58.72,58.72,0,0,1,63.67,144" transform="translate(-20.97 -19.74)" fill="none" stroke="#f5f7f7" stroke-miterlimit="10"/><path d="M152.94,124.26a58.71,58.71,0,0,1-32.33,29.13" transform="translate(-20.97 -19.74)" fill="none" stroke="#f5f7f7" stroke-miterlimit="10"/><path d="M148.9,65.69q0.77,1.14,1.5,2.33a58.29,58.29,0,0,1,7.77,39.83" transform="translate(-20.97 -19.74)" fill="none" stroke="#f5f7f7" stroke-miterlimit="10"/><circle cx="87.7" cy="41.02" r="3.81" transform="translate(-29.21 8.26) rotate(-17.34)" fill="none" stroke="#d7e0e2" stroke-miterlimit="10" stroke-width="0.8"/><path d="M92.25,54.93l-6,1.88A1.44,1.44,0,0,1,84.42,55l2.21-5.45a5,5,0,0,1,6.82-2.13l4.92,3.23a1.44,1.44,0,0,1-.47,2.49l-5.67,1.77h0Z" transform="translate(-20.97 -19.74)" fill="none" stroke="#d7e0e2" stroke-miterlimit="10" stroke-width="0.8"/><circle cx="44.31" cy="80.73" r="3.81" transform="translate(-65.15 86.54) rotate(-77.34)" fill="none" stroke="#d7e0e2" stroke-miterlimit="10" stroke-width="0.8"/><path d="M58.64,83.75l-1.38,6.16a1.44,1.44,0,0,1-2.45.67l-3.62-4.64a5,5,0,0,1,1.57-7L58,76.33A1.44,1.44,0,0,1,59.93,78l-1.3,5.79v0Z" transform="translate(-20.97 -19.74)" fill="none" stroke="#d7e0e2" stroke-miterlimit="10" stroke-width="0.8"/><circle cx="57.02" cy="138.17" r="3.81" transform="translate(-104.2 66.73) rotate(-47.34)" fill="none" stroke="#d7e0e2" stroke-miterlimit="10" stroke-width="0.8"/><path d="M66.79,127.27l4.64,4.28a1.44,1.44,0,0,1-.64,2.45l-5.83.81A5,5,0,0,1,59.71,130L60,124.1a1.44,1.44,0,0,1,2.39-.84l4.37,4Z" transform="translate(-20.97 -19.74)" fill="none" stroke="#d7e0e2" stroke-miterlimit="10" stroke-width="0.8"/><circle cx="113.11" cy="155.88" r="3.81" transform="translate(-62.29 21.05) rotate(-17.34)" fill="none" stroke="#d7e0e2" stroke-miterlimit="10" stroke-width="0.8"/><path d="M108.55,142l6-1.88a1.44,1.44,0,0,1,1.81,1.78l-2.21,5.45a5,5,0,0,1-6.82,2.13l-4.92-3.23a1.44,1.44,0,0,1,.47-2.49l5.67-1.77h0Z" transform="translate(-20.97 -19.74)" fill="none" stroke="#d7e0e2" stroke-miterlimit="10" stroke-width="0.8"/><circle cx="156.49" cy="116.16" r="3.81" transform="translate(-12.12 223.65) rotate(-77.34)" fill="none" stroke="#d7e0e2" stroke-miterlimit="10" stroke-width="0.8"/><path d="M142.17,113.15l1.38-6.16a1.44,1.44,0,0,1,2.45-.67l3.62,4.64a5,5,0,0,1-1.57,7l-5.26,2.65a1.44,1.44,0,0,1-1.92-1.65l1.3-5.79v0Z" transform="translate(-20.97 -19.74)" fill="none" stroke="#d7e0e2" stroke-miterlimit="10" stroke-width="0.8"/><circle cx="143.79" cy="58.73" r="3.81" transform="translate(-17.81 104.93) rotate(-47.34)" fill="none" stroke="#d7e0e2" stroke-miterlimit="10" stroke-width="0.8"/><path d="M134,69.63l-4.64-4.28A1.44,1.44,0,0,1,130,62.9l5.83-.81a5,5,0,0,1,5.25,4.84l-0.34,5.87a1.44,1.44,0,0,1-2.39.84l-4.37-4Z" transform="translate(-20.97 -19.74)" fill="none" stroke="#d7e0e2" stroke-miterlimit="10" stroke-width="0.8"/></svg>