<svg xmlns="http://www.w3.org/2000/svg" xmlns:xlink="http://www.w3.org/1999/xlink" viewBox="0 0 803.43 119.83"><defs><linearGradient id="a" x1="-0.28" y1="50.96" x2="793.43" y2="50.96" gradientTransform="translate(9.87 -33.16) rotate(4.65)" gradientUnits="userSpaceOnUse"><stop offset="0" stop-color="#f3f3f3"/><stop offset="0.49" stop-color="#133a4d"/><stop offset="1" stop-color="#fff"/></linearGradient></defs><title>curved-line</title><path d="M-0.17,87.35c75.68,12.16,158.55,27.76,238,30.68A16.07,16.07,0,0,0,253,109a24,24,0,0,1,43.77.86,16,16,0,0,0,14.88,9.5c77.66-.53,150.22-8,213.39-19.62a21.91,21.91,0,0,0,17-16,26.91,26.91,0,0,1,46.38-10.33,21.59,21.59,0,0,0,22.36,6.44C671.29,62.53,776,26,803,0" transform="translate(0.22 0.22)" fill="none" stroke-miterlimit="10" stroke-width="0.6" stroke="url(#a)"/></svg>